<svg width="93" height="93" viewBox="0 0 93 93" fill="none" xmlns="http://www.w3.org/2000/svg">
<path fill-rule="evenodd" clip-rule="evenodd" d="M23.25 11.625C20.1669 11.625 17.21 12.8498 15.0299 15.0299C12.8498 17.21 11.625 20.1669 11.625 23.25V69.75C11.625 72.8331 12.8498 75.79 15.0299 77.9701C17.21 80.1502 20.1669 81.375 23.25 81.375H69.75C72.8331 81.375 75.79 80.1502 77.9701 77.9701C80.1502 75.79 81.375 72.8331 81.375 69.75V23.25C81.375 20.1669 80.1502 17.21 77.9701 15.0299C75.79 12.8498 72.8331 11.625 69.75 11.625H23.25ZM38.75 31C38.75 29.9723 39.1583 28.9867 39.885 28.26C40.6117 27.5333 41.5973 27.125 42.625 27.125H65.875C66.9027 27.125 67.8883 27.5333 68.615 28.26C69.3417 28.9867 69.75 29.9723 69.75 31C69.75 32.0277 69.3417 33.0133 68.615 33.74C67.8883 34.4667 66.9027 34.875 65.875 34.875H42.625C41.5973 34.875 40.6117 34.4667 39.885 33.74C39.1583 33.0133 38.75 32.0277 38.75 31ZM38.75 46.5C38.75 45.4723 39.1583 44.4867 39.885 43.76C40.6117 43.0333 41.5973 42.625 42.625 42.625H65.875C66.9027 42.625 67.8883 43.0333 68.615 43.76C69.3417 44.4867 69.75 45.4723 69.75 46.5C69.75 47.5277 69.3417 48.5133 68.615 49.24C67.8883 49.9667 66.9027 50.375 65.875 50.375H42.625C41.5973 50.375 40.6117 49.9667 39.885 49.24C39.1583 48.5133 38.75 47.5277 38.75 46.5ZM38.75 62C38.75 60.9723 39.1583 59.9867 39.885 59.26C40.6117 58.5333 41.5973 58.125 42.625 58.125H65.875C66.9027 58.125 67.8883 58.5333 68.615 59.26C69.3417 59.9867 69.75 60.9723 69.75 62C69.75 63.0277 69.3417 64.0133 68.615 64.74C67.8883 65.4667 66.9027 65.875 65.875 65.875H42.625C41.5973 65.875 40.6117 65.4667 39.885 64.74C39.1583 64.0133 38.75 63.0277 38.75 62ZM27.125 27.125C26.0973 27.125 25.1117 27.5333 24.385 28.26C23.6583 28.9867 23.25 29.9723 23.25 31C23.25 32.0277 23.6583 33.0133 24.385 33.74C25.1117 34.4667 26.0973 34.875 27.125 34.875C28.1527 34.875 29.1422 34.4667 29.8689 33.74C30.5956 33.0133 31.0039 32.0277 31.0039 31C31.0039 29.9723 30.5956 28.9867 29.8689 28.26C29.1422 27.5333 28.1527 27.125 27.125 27.125ZM23.25 46.5C23.25 45.4723 23.6583 44.4867 24.385 43.76C25.1117 43.0333 26.0973 42.625 27.125 42.625C28.1527 42.625 29.1422 43.0333 29.8689 43.76C30.5956 44.4867 31.0039 45.4723 31.0039 46.5C31.0039 47.5277 30.5956 48.5133 29.8689 49.24C29.1422 49.9667 28.1566 50.375 27.1289 50.375C26.1012 50.375 25.1117 49.9667 24.385 49.24C23.6583 48.5133 23.25 47.5277 23.25 46.5ZM27.125 58.125C26.0973 58.125 25.1117 58.5333 24.385 59.26C23.6583 59.9867 23.25 60.9723 23.25 62C23.25 63.0277 23.6583 64.0133 24.385 64.74C25.1117 65.4667 26.0973 65.875 27.125 65.875C28.1527 65.875 29.1422 65.4667 29.8689 64.74C30.5956 64.0133 31.0039 63.0277 31.0039 62C31.0039 60.9723 30.5956 59.9867 29.8689 59.26C29.1422 58.5333 28.1527 58.125 27.125 58.125Z" fill="url(#paint0_linear_4_4)"/>
<defs>
<linearGradient id="paint0_linear_4_4" x1="74" y1="14.5" x2="18" y2="77.5" gradientUnits="userSpaceOnUse">
<stop offset="0.4375" stop-color="#D4AF37"/>
<stop offset="1" stop-color="#FFD700"/>
</linearGradient>
</defs>
</svg>
