<svg width="98" height="98" viewBox="0 0 98 98" fill="none" xmlns="http://www.w3.org/2000/svg">
<path fill-rule="evenodd" clip-rule="evenodd" d="M49 8.16673C54.3623 8.16671 59.6721 9.22287 64.6263 11.2749C69.5804 13.327 74.0819 16.3347 77.8736 20.1265C81.6654 23.9182 84.6731 28.4196 86.7252 33.3737C88.7773 38.3279 89.8335 43.6377 89.8335 49C89.8335 71.5517 71.5517 89.8335 49 89.8335C26.4485 89.8335 8.16675 71.5517 8.16675 49C8.16675 26.4485 26.4485 8.16673 49 8.16673ZM53.0835 53.0835H44.9167C34.8076 53.0835 26.1287 59.206 22.3854 67.9458C28.3082 76.2511 38.0217 81.6667 49 81.6667C59.9783 81.6667 69.6918 76.2511 75.6149 67.9452C71.8715 59.206 63.1926 53.0835 53.0835 53.0835ZM49 20.4167C42.2346 20.4167 36.75 25.9013 36.75 32.6667C36.75 39.4322 42.2346 44.9167 49 44.9167C55.7655 44.9167 61.25 39.4322 61.25 32.6667C61.25 25.9013 55.7657 20.4167 49 20.4167Z" fill="url(#paint0_linear_4_7)"/>
<defs>
<linearGradient id="paint0_linear_4_7" x1="90" y1="8" x2="8" y2="90" gradientUnits="userSpaceOnUse">
<stop stop-color="#D4AF37"/>
<stop offset="1" stop-color="#FFD700"/>
</linearGradient>
</defs>
</svg>
